<svg xmlns="http://www.w3.org/2000/svg" width="24" height="24" viewBox="0 0 24 24" fill="#4F6AE5"><path d="M12 .5a11.5 11.5 0 0 0-3.64 22.41c.58.1.79-.25.79-.56v-2.08c-3.23.71-3.91-1.39-3.91-1.39-.53-1.34-1.3-1.7-1.3-1.7-1.06-.72.08-.7.08-.7 1.17.08 1.8 1.2 1.8 1.2 1.03 1.78 2.72 1.27 3.38.97.1-.74.4-1.24.73-1.52-2.58-.3-5.29-1.29-5.29-5.74 0-1.27.45-2.3 1.2-3.12-.12-.3-.52-1.47.11-3.06 0 0 .98-.31 3.2 1.19A11.1 11.1 0 0 1 12 6.1c1 0 2 .14 2.94.4 2.22-1.5 3.2-1.19 3.2-1.19.63 1.59.23 2.76.11 3.06.75.82 1.2 1.85 1.2 3.12 0 4.46-2.72 5.43-5.31 5.73.42.36.8 1.07.8 2.16v3.2c0 .31.2.67.8.56A11.5 11.5 0 0 0 12 .5Z"/></svg>
