<svg xmlns="http://www.w3.org/2000/svg" viewBox="0 0 520 96" fill="none">
  <g stroke="#4F6AE5" stroke-width="2" stroke-linecap="round" stroke-linejoin="round">
    <path d="M38 58c-12 0-22-9-22-21s10-21 22-21c5 0 10 2 14 5 5-7 13-11 22-11 15 0 27 10 30 24 1 0 2 0 3 0 12 0 22 9 22 20s-10 20-22 20H38z"/>
    <ellipse cx="77" cy="53" rx="18" ry="11"/>
    <path d="M65 44c3-3 7-4 11-4 4 0 8 1 11 4"/>
    <circle cx="92" cy="52" r="6"/>
    <path d="M63 62v8M74 62v8M85 62v8M96 62v8"/>
  </g>
  <text x="154" y="59" font-size="38" font-family="'LXGW WenKai','PingFang SC','Microsoft YaHei',sans-serif" fill="#1A1D2E">opening</text>
  <text x="293" y="59" font-size="38" font-family="'LXGW WenKai','PingFang SC','Microsoft YaHei',sans-serif" fill="#4F6AE5">Clouds</text>
  <text x="156" y="80" font-size="12" letter-spacing="1.2" fill="#637089">Tech · Efficiency · Life</text>
</svg>
