<svg xmlns="http://www.w3.org/2000/svg" viewBox="0 0 96 96" fill="none">
  <rect width="96" height="96" rx="20" fill="#F8F9FC"/>
  <g stroke="#4F6AE5" stroke-width="2.2" stroke-linecap="round" stroke-linejoin="round" transform="translate(6 10)">
    <path d="M18 54C8 54 0 47 0 38s8-16 18-16c4 0 8 1 11 4 4-6 11-9 18-9 12 0 22 8 25 19h2c10 0 18 7 18 16s-8 16-18 16H18z"/>
    <ellipse cx="43" cy="47" rx="14" ry="9"/>
    <path d="M35 40c2-2 5-3 8-3s6 1 8 3"/>
    <circle cx="55" cy="46" r="5"/>
    <path d="M34 54v7M42 54v7M50 54v7M58 54v7"/>
  </g>
</svg>
