<svg xmlns="http://www.w3.org/2000/svg" viewBox="0 0 1040 720" fill="none">
  <rect x="40" y="30" width="960" height="640" rx="28" fill="#E8EDF8"/>
  <g stroke="#A9B4CB" stroke-width="2">
    <path id="xinjiang" d="M100 260h140v100H100z"/>
    <path id="xizang" d="M130 380h190v110H130z"/>
    <path id="qinghai" d="M260 250h150v120H260z"/>
    <path id="gansu" d="M380 220h110v180H380z"/>
    <path id="sichuan" d="M360 410h150v130H360z"/>
    <path id="yunnan" d="M300 540h130v90H300z"/>
    <path id="guizhou" d="M450 540h110v80H450z"/>
    <path id="guangxi" d="M560 560h110v80H560z"/>
    <path id="guangdong" d="M670 560h150v80H670z"/>
    <path id="hainan" d="M690 660h90v30H690z"/>
    <path id="hubei" d="M560 430h130v90H560z"/>
    <path id="hunan" d="M560 520h130v80H560z"/>
    <path id="henan" d="M560 330h130v90H560z"/>
    <path id="shanxi" d="M560 230h120v90H560z"/>
    <path id="hebei" d="M690 220h130v100H690z"/>
    <path id="shandong" d="M810 240h110v90H810z"/>
    <path id="jiangsu" d="M810 340h110v70H810z"/>
    <path id="zhejiang" d="M840 420h90v90H840z"/>
    <path id="anhui" d="M720 340h90v90H720z"/>
    <path id="fujian" d="M820 510h100v90H820z"/>
    <path id="jiangxi" d="M720 460h110v100H720z"/>
    <path id="beijing" d="M760 210h30v20H760z"/>
    <path id="shanghai" d="M920 450h20v20H920z"/>
    <path id="inner_mongolia" d="M450 120h340v80H450z"/>
    <path id="heilongjiang" d="M790 90h140v90H790z"/>
  </g>
</svg>
